<svg width="96" height="96" xmlns="http://www.w3.org/2000/svg">
 <title/>

 <g>
  <title>background</title>
  <rect fill="#333333" id="canvas_background" height="98" width="98" y="-1" x="-1"/>
 </g>
 <g>
  <title>Layer 1</title>
  <path fill="#ffffff" id="svg_2" d="m18,24l60,0a6,6 0 0 0 0,-12l-60,0a6,6 0 0 0 0,12z"/>
  <path fill="#ffffff" id="svg_3" d="m78,42l-60,0a6,6 0 0 0 0,12l60,0a6,6 0 0 0 0,-12z"/>
  <path fill="#ffffff" id="svg_4" d="m78.377315,72l-60,0a6,6 0 0 0 0,12l60,0a6,6 0 0 0 0,-12z"/>
 </g>
</svg>